# Blender v2.79 (sub 0) OBJ File: ''
# www.blender.org
g Canoe
v 0.000000 0.000000 -0.000000
v -0.922062 0.552781 -1.595186
v 0.352190 0.552780 -2.581089
v 1.139730 0.552784 -0.000000
v 0.352190 0.552780 2.581089
v -0.922062 0.552781 1.595186
v 0.207011 0.149346 -1.517115
v -0.541971 0.149346 -0.937620
v -0.334962 0.474262 -2.454750
v -1.083945 0.474264 -0.000000
v -0.541971 0.149346 0.937620
v 0.669916 0.149348 -0.000000
v 0.876931 0.474264 -1.517120
v 0.207011 0.149346 1.517115
v 0.876931 0.474264 1.517120
v -0.334962 0.474262 2.454750
v -1.211893 1.000000 -0.937624
v -1.211893 1.000000 0.937624
v 0.000000 1.000000 -3.034258
v -0.748990 1.000000 -2.454765
v 1.211893 1.000000 -0.937624
v 0.748991 1.000000 -2.454765
v 0.748991 1.000000 2.454765
v 1.211893 1.000000 0.937624
v -0.748990 1.000000 2.454765
v 0.000000 1.000000 3.034258
v 0.196434 0.172924 -1.439604
v 0.000000 0.031208 -0.000000
v -0.514281 0.172924 -0.889717
v -0.874953 0.555747 -1.513687
v -0.317849 0.481240 -2.329335
v 0.334196 0.555747 -2.449220
v -1.028565 0.481242 -0.000000
v -0.514281 0.172924 0.889717
v -0.874953 0.555747 1.513687
v 0.635689 0.172926 -0.000000
v 0.832128 0.481242 -1.439609
v 1.081500 0.555751 -0.000000
v 0.196434 0.172924 1.439604
v 0.832128 0.481242 1.439609
v 0.334196 0.555747 2.449220
v -0.317849 0.481240 2.329335
v -1.149976 0.980118 -0.889720
v 0.000000 0.980118 -2.879236
v 1.149977 0.980118 -0.889720
v 0.710724 0.980118 2.329350
v -0.710724 0.980118 2.329350
v -1.149976 0.980118 0.889720
v -0.710724 0.980118 -2.329350
v 0.710724 0.980118 -2.329350
v 1.149977 0.980118 0.889720
v 0.000000 0.980118 2.879236
vn -0.0843 -0.9905 -0.1090
vn -0.6355 -0.7653 -0.1022
vn 0.2171 -0.9739 -0.0662
vn 0.2171 -0.9739 0.0662
vn -0.0843 -0.9905 0.1090
vn -0.9010 -0.4191 -0.1121
vn -0.0428 -0.7275 -0.6847
vn 0.8959 -0.4239 -0.1332
vn 0.7379 -0.5407 0.4039
vn -0.7082 -0.5578 0.4328
vn -0.9395 -0.1874 -0.2867
vn 0.5829 -0.3044 -0.7534
vn 0.9872 -0.1593 0.0000
vn 0.5829 -0.3044 0.7534
vn -0.9395 -0.1874 0.2867
vn -0.5513 -0.4341 0.7125
vn -0.0428 -0.7275 0.6847
vn 0.9192 -0.2765 0.2805
vn 0.8959 -0.4239 0.1332
vn 0.9192 -0.2765 -0.2805
vn 0.7379 -0.5407 -0.4039
vn -0.5513 -0.4341 -0.7125
vn -0.7082 -0.5578 -0.4328
vn -0.9716 -0.2365 0.0000
vn -0.9010 -0.4191 0.1121
vn -0.4729 -0.8461 0.2457
vn -0.1773 -0.9571 0.2292
vn 0.0428 -0.9361 0.3491
vn 0.4201 -0.8661 0.2711
vn 0.4326 -0.8919 0.1320
vn 0.6497 -0.7566 0.0734
vn 0.6497 -0.7566 -0.0734
vn 0.4326 -0.8919 -0.1320
vn 0.4201 -0.8661 -0.2711
vn -0.6355 -0.7653 0.1022
vn -0.5142 -0.8577 0.0000
vn -0.2657 -0.9641 0.0000
vn 0.0428 -0.9361 -0.3491
vn -0.1773 -0.9571 -0.2292
vn -0.4729 -0.8461 -0.2457
vn 0.0843 0.9905 0.1090
vn 0.6355 0.7653 0.1022
vn -0.2171 0.9739 0.0662
vn -0.2171 0.9739 -0.0662
vn 0.0843 0.9905 -0.1090
vn 0.9010 0.4191 0.1121
vn 0.0428 0.7275 0.6847
vn -0.8959 0.4239 0.1332
vn -0.7379 0.5407 -0.4039
vn 0.7082 0.5578 -0.4328
vn 0.9395 0.1874 0.2867
vn -0.5829 0.3044 0.7534
vn -0.9872 0.1593 0.0000
vn -0.5829 0.3044 -0.7534
vn 0.9395 0.1874 -0.2867
vn 0.5513 0.4341 -0.7125
vn 0.0428 0.7275 -0.6847
vn -0.9192 0.2765 -0.2805
vn -0.8959 0.4239 -0.1332
vn -0.9192 0.2765 0.2805
vn -0.7379 0.5407 0.4039
vn 0.5513 0.4341 0.7125
vn 0.7082 0.5578 0.4328
vn 0.9716 0.2365 0.0000
vn 0.9010 0.4191 -0.1121
vn 0.4729 0.8461 -0.2457
vn 0.1773 0.9571 -0.2292
vn -0.0428 0.9361 -0.3491
vn -0.4201 0.8661 -0.2711
vn -0.4326 0.8919 -0.1320
vn -0.6497 0.7566 -0.0734
vn -0.6497 0.7566 0.0734
vn -0.4326 0.8919 0.1320
vn -0.4201 0.8661 0.2711
vn 0.6355 0.7653 -0.1022
vn 0.5142 0.8577 0.0000
vn 0.2657 0.9641 0.0000
vn -0.0428 0.9361 0.3491
vn 0.1773 0.9571 0.2292
vn 0.4729 0.8461 0.2457
vn -0.0980 0.9871 0.1266
vn 0.3057 0.9521 0.0000
vn 0.2507 0.9650 -0.0765
vn 0.0980 0.9871 0.1266
vn 0.2507 0.9650 0.0765
vn -0.2507 0.9650 0.0765
vn -0.0980 0.9871 -0.1266
vn -0.2507 0.9650 -0.0765
vn 0.0980 0.9871 -0.1266
vn -0.3057 0.9521 0.0000
s off
f 1//1 8//1 7//1
f 2//2 8//2 10//2
f 1//3 7//3 12//3
f 1//4 12//4 14//4
f 1//5 14//5 11//5
f 2//6 10//6 17//6
f 3//7 9//7 19//7
f 4//8 13//8 21//8
f 5//9 15//9 23//9
f 6//10 16//10 25//10
f 2//11 17//11 20//11
f 3//12 19//12 22//12
f 4//13 21//13 24//13
f 5//14 23//14 26//14
f 6//15 25//15 18//15
f 25//16 16//16 26//16
f 16//17 5//17 26//17
f 23//18 15//18 24//18
f 15//19 4//19 24//19
f 21//20 13//20 22//20
f 13//21 3//21 22//21
f 19//22 9//22 20//22
f 9//23 2//23 20//23
f 17//24 10//24 18//24
f 10//25 6//25 18//25
f 11//26 16//26 6//26
f 11//27 14//27 16//27
f 14//28 5//28 16//28
f 14//29 15//29 5//29
f 14//30 12//30 15//30
f 12//31 4//31 15//31
f 12//32 13//32 4//32
f 12//33 7//33 13//33
f 7//34 3//34 13//34
f 10//35 11//35 6//35
f 10//36 8//36 11//36
f 8//37 1//37 11//37
f 7//38 9//38 3//38
f 7//39 8//39 9//39
f 8//40 2//40 9//40
f 28//41 27//41 29//41
f 30//42 33//42 29//42
f 28//43 36//43 27//43
f 28//44 39//44 36//44
f 28//45 34//45 39//45
f 30//46 43//46 33//46
f 32//47 44//47 31//47
f 38//48 45//48 37//48
f 41//49 46//49 40//49
f 35//50 47//50 42//50
f 30//51 49//51 43//51
f 32//52 50//52 44//52
f 38//53 51//53 45//53
f 41//54 52//54 46//54
f 35//55 48//55 47//55
f 47//56 52//56 42//56
f 42//57 52//57 41//57
f 46//58 51//58 40//58
f 40//59 51//59 38//59
f 45//60 50//60 37//60
f 37//61 50//61 32//61
f 44//62 49//62 31//62
f 31//63 49//63 30//63
f 43//64 48//64 33//64
f 33//65 48//65 35//65
f 34//66 35//66 42//66
f 34//67 42//67 39//67
f 39//68 42//68 41//68
f 39//69 41//69 40//69
f 39//70 40//70 36//70
f 36//71 40//71 38//71
f 36//72 38//72 37//72
f 36//73 37//73 27//73
f 27//74 37//74 32//74
f 33//75 35//75 34//75
f 33//76 34//76 29//76
f 29//77 34//77 28//77
f 27//78 32//78 31//78
f 27//79 31//79 29//79
f 29//80 31//80 30//80
f 19//81 44//81 50//81 22//81
f 18//82 48//82 43//82 17//82
f 25//83 47//83 48//83 18//83
f 20//84 49//84 44//84 19//84
f 17//85 43//85 49//85 20//85
f 22//86 50//86 45//86 21//86
f 23//87 46//87 52//87 26//87
f 24//88 51//88 46//88 23//88
f 26//89 52//89 47//89 25//89
f 21//90 45//90 51//90 24//90
